<svg xmlns="http://www.w3.org/2000/svg" viewBox="0 0 235.3 235.3" xml:space="preserve">
  <path d="M80.6 89.3c-2.8-8.7-3.5-17.8-1.4-27.4 5.4-24.1 35-44 63.4-22 3.5 2.7 6.7 5.9 9.7 8.5l1.2-.9c7.9-6.2 9.8-8.1 15.8-11.6 26.3-15.5 53.9 5.1 57.4 28.9 1.6 11.2-.2 21.3-4.3 30.6" fill="none" stroke="#f8f8f8" stroke-width="15" stroke-linecap="round" stroke-miterlimit="10" />
  <path d="M121.2 133.5c18.3 10 36.4 14 55 1.9 12.2-8 24.8-15.3 37.2-23 4.2-2.6 8.8-4.9 12.6-.2 3.8 4.7.9 8.2-2.9 11.9-9.2 8.7-17.3 18.6-27 26.7-13.8 11.6-29.5 17.2-48.3 16.9-19.5-.3-39.1 2.7-58.6 5.1-6.3.8-9.9-.9-13.4-5.6-7.4-9.9-15.1-19.7-22.8-29.4-5.1-6.5-4.6-10.2 2.4-14.9 12.1-8.2 24.8-12 40.1-11.2 23.3 1.2 46.8-.5 70.1-1.2 5.5-.2 11.6-.4 12 6.7.4 6.1-4 10.2-10.1 11-13.7 1.8-27.4 3.1-41.1 4.7-1.8.2-3.5.4-5.2.6zm-87.5.4c1.3 1 3.4 2 4.7 3.7 10.8 13.3 22 26.4 31.8 40.5 1.8 2.6-1.2 10.2-4.1 14-3.3 4.4-9 7-13.3 10.8-5.4 4.7-10.4 4.9-15-.9-10.3-13.1-20.8-26.1-30.6-39.6-1.6-2.2-1.4-8.3.5-10.1 6.3-6.2 13.7-11.4 20.9-16.8 1.1-.9 2.8-.9 5.1-1.6z" stroke="none" fill="#FED168" stroke-width="6" stroke-miterlimit="10"/>
</svg>
