<?xml version="1.0" encoding="UTF-8"?>
<svg id="Calque_2" data-name="Calque 2" xmlns="http://www.w3.org/2000/svg" viewBox="0 0 270 270">
  <defs>
    <style>
      .cls-1 {
        fill: #fff9e6;
      }

      .cls-2 {
        fill: #ffd166;
      }

      .cls-3 {
        fill: #749e70;
      }
    </style>
  </defs>
  <g id="Calque_4" data-name="Calque 4">
    <g>
      <rect class="cls-1" x="0" y="0" width="270" height="270" rx="134.77" ry="134.77"/>
      <g>
        <g>
          <path class="cls-3" d="M83.27,219.91c-2.75,.85-5.27-1.19-5.27-3.81V50h115V181.11c0,1.75-1.06,3.39-2.73,3.91-2.75,.85-5.27-1.19-5.27-3.81V58H86V216c0,1.75-1.06,3.39-2.73,3.91Z"/>
          <g>
            <path class="cls-3" d="M189,219.78c-.85,0-1.57-.53-1.86-1.27-26.38-15.5-44.81-42.44-49.64-72.51h-.65c-5.58,31.41-25.77,58.8-54.29,73.5-.98,.51-2.19,.12-2.69-.86s-.12-2.19,.86-2.69c27.9-14.38,47.51-41.39,52.46-72.26l.27-1.68h7.5l.25,1.72c4.26,29.88,22.51,56.73,48.79,71.83l1,.58v1.66c0,1.11-.89,2-2,2Z"/>
            <path class="cls-3" d="M135,174.93v-8.56c0-.87,.51-1.7,1.34-1.97,1.39-.44,2.66,.58,2.66,1.89v8.7c0,1.32-1.27,2.34-2.66,1.89-.83-.26-1.34-1.1-1.34-1.97Z"/>
            <path class="cls-3" d="M135,204.67v-15.51c0-.87,.51-1.7,1.34-1.97,1.39-.44,2.66,.58,2.66,1.89v15.65c0,1.32-1.27,2.34-2.66,1.89-.83-.26-1.34-1.1-1.34-1.96Z"/>
          </g>
        </g>
        <g>
          <path class="cls-2" d="M167.88,140.75c-1.64,0-2.98-1.33-2.98-2.98,0-15.14-12.32-27.46-27.46-27.46s-27.46,12.32-27.46,27.46c0,1.64-1.33,2.98-2.98,2.98s-2.98-1.33-2.98-2.98c0-18.42,14.99-33.41,33.41-33.41s33.41,14.99,33.41,33.41c0,1.64-1.33,2.98-2.98,2.98Z"/>
          <path class="cls-2" d="M144.38,137h-13.82c-1.3,0-2.52-.78-2.92-2.01-.66-2.07,.87-3.99,2.84-3.99h13.82c1.3,0,2.52,.78,2.92,2.01,.66,2.07-.87,3.99-2.84,3.99Z"/>
        </g>
        <g>
          <rect class="cls-2" x="135" y="76" width="4" height="25"/>
          <rect class="cls-2" x="128" y="82" width="18" height="4"/>
        </g>
      </g>
    </g>
  </g>
</svg>