<?xml version="1.0" encoding="UTF-8"?>
<svg id="Calque_2" data-name="Calque 2" xmlns="http://www.w3.org/2000/svg" viewBox="0 0 187.99 185.84">
  <defs>
    <style>
      .cls-1 {
        fill: #ffd166;
      }
    </style>
  </defs>
  <g id="Calque_4" data-name="Calque 4">
    <g>
      <path class="cls-1" d="M185.07,46.32c-3.81,3.69-9.89,3.6-13.58-.21-34.03-35.1-90.28-35.97-125.38-1.94-35.1,34.03-35.97,90.28-1.94,125.38,3.69,3.81,3.6,9.89-.21,13.58s-9.89,3.6-13.58-.21C-11.03,140.21-9.97,71.78,32.74,30.37c42.71-41.41,111.14-40.35,152.55,2.36,3.69,3.81,3.6,9.89-.21,13.58Z"/>
      <path class="cls-1" d="M122.25,90.76l-31.94,30.96c-3.81,3.69-9.89,3.6-13.58-.21-3.69-3.81-3.6-9.89,.21-13.58l31.94-30.96c3.81-3.69,9.89-3.6,13.58,.21s3.6,9.89-.21,13.58Z"/>
    </g>
  </g>
</svg>