<?xml version="1.0" encoding="UTF-8"?>
<svg id="Calque_2" data-name="Calque 2" xmlns="http://www.w3.org/2000/svg" viewBox="0 0 170 197">
  <defs>
    <style>
      .cls-1 {
        fill: #3f3f40;
      }

      .cls-2 {
        fill: #ffd166;
      }

      .cls-3 {
        fill: #749e70;
      }
    </style>
  </defs>
  <g id="Calque_4" data-name="Calque 4">
    <g>
      <g>
        <g>
          <path class="cls-3" d="M54.36,96.49c-1.25,0-2.26-1.01-2.36-2.26V0H117V74.54c.2,1.25-.81,2.26-2.05,2.26s-2.26-1.01-2.95-2.26V5H57V94.23c-.38,1.25-1.4,2.26-2.64,2.26Z"/>
          <g>
            <path class="cls-3" d="M114.95,96.49c-.48,0-.89-.3-1.05-.72-14.89-8.75-25.29-23.95-28.01-40.77h-.37c-3.15,17.58-14.55,33.03-30.64,41.33-.55,.29-1.23,.07-1.52-.49s-.07-1.23,.49-1.52c15.75-8.12,26.81-23.36,29.61-40.78l.15-.54h4.23l.14,.56c2.41,16.86,12.7,32.02,27.54,40.54l.49,.33v.94c.07,.62-.43,1.13-1.05,1.13Z"/>
            <path class="cls-3" d="M85.58,72.63c-.62,0-1.13-.51-.58-1.13v-4.91c-.55-.62-.04-1.13,.58-1.13s1.13,.51,1.42,1.13v4.91c-.29,.62-.8,1.13-1.42,1.13Z"/>
            <path class="cls-3" d="M85.58,89.54c-.62,0-1.13-.5-.58-1.13v-8.83c-.55-.62-.04-1.13,.58-1.13s1.13,.51,1.42,1.13v8.83c-.29,.62-.8,1.13-1.42,1.13Z"/>
          </g>
        </g>
        <g>
          <path class="cls-2" d="M103.1,52.04c-.93,0-1.69-.76-1.69-1.69,0-8.62-7.01-15.63-15.63-15.63s-15.63,7.01-15.63,15.63c0,.93-.76,1.69-1.69,1.69s-1.69-.76-1.69-1.69c0-10.48,8.53-19.01,19.01-19.01s19.01,8.53,19.01,19.01c0,.93-.76,1.69-1.69,1.69Z"/>
          <path class="cls-2" d="M89.7,50h-7.84c-.93-.05-1.69-.8-1.69-1.74s.76-1.69,1.69-1.26h7.84c.93-.43,1.69,.33,1.69,1.26s-.76,1.69-1.69,1.74Z"/>
        </g>
        <g>
          <rect class="cls-2" x="85" y="15" width="2" height="14"/>
          <rect class="cls-2" x="81" y="19" width="10" height="2"/>
        </g>
      </g>
      <g>
        <g>
          <path class="cls-1" d="M23,151H14v-.43c1.84,0,1.5-1.87,.72-3.71l-1.2-2.86H4.68c-.92,2.63-2.42,6.7,2.32,6.57v.43H0v-.46c1.33-.04,2.21-.18,5.26-8.38l5.86-16.16h.39c4.28,10.44,8.62,21.66,8.62,21.66,1.16,2.84,1.89,2.8,2.88,2.88v.46Zm-9.11-8l-4.59-11.64-4.24,11.64H13.89Z"/>
          <path class="cls-1" d="M40,150.42l-4.13,.69c-.87,.18-.87-.54-.87-.54v-2.95c-.61,1.81-2.83,3.45-5.12,3.45-2.46,0-4.88-.89-4.88-5.15v-7.93c0-2.29,.04-2.46-2-2.61v-.39l5-.67v11.43s1.73,3.68,3.77,3.68c1.75,0,4.23-2.7,4.23-2.7v-8.83l-2-2.49v-.4l5-.71v13.62l1,2.07v.44Z"/>
          <path class="cls-1" d="M44,137.99c-.35-1.19-2-2.24-2-2.24v-.4l5-1.06v14.69c0,6.75-2.46,9.04-6,9.93v-.27c3-.93,3-7.7,3-9v-11.64Zm-.95-8.38c0-1.02,.81-1.82,1.79-1.82s1.79,.81,1.79,1.82-.81,1.79-1.79,1.79-1.79-.81-1.79-1.79Z"/>
          <path class="cls-1" d="M58.82,151.13c-5.33,0-8.1-3.82-8.1-8.41s2.77-8.41,8.1-8.41,8.06,3.79,8.06,8.41-2.7,8.41-8.06,8.41Zm0-16.37c-2.7,0-4.52,1.61-4.52,7.96s1.82,7.96,4.52,7.96,4.45-1.61,4.45-7.96-1.79-7.96-4.45-7.96Z"/>
          <path class="cls-1" d="M86,150.42l-4.13,.69c-.87,.18-.87-.54-.87-.54v-2.95c-.61,1.81-2.83,3.45-5.12,3.45-2.46,0-4.88-.89-4.88-5.15v-7.93c0-2.29,.04-2.46-2-2.61v-.39l5-.67v11.49c0,2.57,1.52,3.55,3.48,3.55,1.69,0,2.91-1.18,3.52-2.6v-8.86l-2-2.49v-.4l5-.71v13.62l2,2.07v.44Z"/>
          <path class="cls-1" d="M98.92,135.03c.72,.87,.62,2.1-.25,2.83-.83,.69-2.07,.62-2.83-.25-.33-.4-.51-.91-.4-1.38,.11-.62-2.32,.25-3.44,2.68v8.65s.12,2.49,1,2.8v.64h-5v-.64c.79-.39,1-2.8,1-2.8v-9.71l-2-2.1v-.46l5-1.05v3.8c1.34-2.46,3.41-3.51,4.85-3.7,.65-.07,1.56,.11,2.07,.69Z"/>
          <path class="cls-1" d="M118,150.45l-3.98,.66c-1.02,.18-1.02-.66-1.02-.66v-1.91s-3.22,2.59-4.94,2.59c-4.7,0-7.4-3.72-7.4-8.62,0-5.43,3.54-8.2,8.24-8.2,1.72,0,3.15,.49,4.09,1.3v-7.29c.22-1.23-2-1.96-2-1.96v-.44l5-.99v23.15l2,1.93v.44Zm-5-10.6c0-3.4-2.1-5.08-4.24-5.08-2.31,0-4.66,1.65-4.66,7.26s1.79,8.1,4.84,8.1c2.31,0,4.07-1.68,4.07-4.14v-6.13Z"/>
          <path class="cls-1" d="M120.89,134.24c2.35-1.68,2.14-3.82,1.58-3.89-.49-.07-.95-.21-1.37-.6-.81-.81-.84-2.1-.03-2.91,.81-.81,2.1-.81,2.91,0,1.23,1.23,.63,3.72-.32,5.26-.46,.7-1.02,1.61-2.56,2.42l-.21-.28Z"/>
          <path class="cls-1" d="M143,151h-5v-.6c1.01-.39,1-2.84,1-2.84v-7.54c0-2.44-1.15-3.86-3.52-3.86-1.69,0-2.94,1.56-3.48,2.71v8.69s0,2.49,1,2.8v.64h-5v-.64c.67-.39,1-2.8,1-2.8v-19.21l-2-1.89v-.44l5-1.09v13.31c.51-1.95,3.07-3.86,5.29-3.86,2.8,0,4.71,1.4,4.71,5.5v7.68s.31,2.52,1,2.84v.6Z"/>
          <path class="cls-1" d="M162,150.42l-4.13,.69c-.87,.18-.87-.54-.87-.54v-2.95c-.61,1.81-2.83,3.45-5.12,3.45-2.46,0-4.88-.89-4.88-5.15v-7.93c0-2.29,.04-2.46-2-2.61v-.39l5-.67v11.49c0,2.57,1.52,3.55,3.48,3.55,1.69,0,2.91-1.18,3.52-2.6v-8.86l-2-2.49v-.4l5-.71v13.62l2,2.07v.44Z"/>
          <path class="cls-1" d="M170,151h-6v-.64c1.19-.39,1-2.8,1-2.8v-9.71l-2-2.1v-.4l5-1.06v13.27s.49,2.49,2,2.8v.64Zm-5.33-21.39c0-1.02,.77-1.79,1.79-1.79s1.79,.77,1.79,1.79-.81,1.79-1.79,1.79-1.79-.81-1.79-1.79Z"/>
        </g>
        <g>
          <path class="cls-1" d="M27,197h-5v-.56c.83-.39,1-2.77,1-2.77v-19.24l-2-2v-.44l5-.98v22.66s.16,2.45,1,2.77v.56Z"/>
          <path class="cls-1" d="M40.62,180.31c2.35-1.68,2.14-3.82,1.58-3.89-.49-.07-.95-.21-1.37-.6-.81-.81-.84-2.1-.03-2.91,.81-.81,2.1-.81,2.91,0,1.23,1.23,.63,3.72-.32,5.26-.46,.7-1.02,1.61-2.56,2.42l-.21-.28Z"/>
          <path class="cls-1" d="M72,197h-8v-.43c1.84,0,1.5-1.87,.72-3.71l-1.2-2.86h-8.84c-.92,2.63-2.42,6.7,2.32,6.57v.43h-8v-.46c1.33-.04,2.21-.18,5.26-8.38l5.86-16.16h.39c4.28,10.44,8.62,21.66,8.62,21.66,1.16,2.84,1.89,2.8,2.88,2.88v.46Zm-8.78-8l-4.59-11.64-4.24,11.64h8.83Z"/>
          <path class="cls-1" d="M87,180v.47c-1.33,0-2.38,.04-4.23,4.62l-4.33,11.91h-.35c-6.19-13.86-6.64-14.73-6.64-14.73-.87-1.8-1.85-1.77-2.45-1.8v-.47h8v.46c-2.35,0-1.09,2.42-1.09,2.42l4.35,9.5,2.7-7.26s1.86-4.66-1.96-4.66v-.46h6Z"/>
          <path class="cls-1" d="M103.12,192.28c-.39,1.65-2.31,4.45-6.45,4.45-4.38,0-7.5-3.65-7.5-8.27,0-5.19,3.29-8.55,7.64-8.55,4.07,0,6.87,2.59,6.87,8.1h-11.22c.14,4.73,2.24,6.62,5.01,6.91,2.1,.21,4.59-1.09,5.22-2.8l.42,.17Zm-2.45-4.28c0-5.12-2.28-7.19-3.96-7.19-2,0-4.24,2.77-4.24,7.19h8.2Z"/>
          <path class="cls-1" d="M122,197h-5v-.53c1.14-.39,1-2.84,1-2.84v-7.58c0-2.33-1.24-3.88-3.5-3.88-1.78,0-3.23,1.72-3.5,2.95v8.54s.24,2.45,1,2.77v.56h-5v-.56c.94-.39,1-2.77,1-2.77v-9.78l-2-2.07v-.4l5-1.05v3.68c.72-1.99,3.09-3.61,5.26-3.61,2.78,0,4.74,1.34,4.74,5.5v7.7s.47,2.52,1,2.84v.53Z"/>
          <path class="cls-1" d="M132,197h-5v-.56c.63-.39,1-2.8,1-2.8v-9.71l-2-2.1v-.4l5-1.06v13.27s-.07,2.49,1,2.8v.56Zm-4.89-21.31c0-1.02,.77-1.79,1.79-1.79s1.79,.77,1.79,1.79-.81,1.79-1.79,1.79-1.79-.81-1.79-1.79Z"/>
          <path class="cls-1" d="M147.92,181.11c.72,.87,.62,2.1-.25,2.83-.83,.69-2.07,.62-2.83-.25-.33-.4-.51-.91-.4-1.38,.11-.62-2.32,.25-3.44,2.68v8.65s.14,2.49,1,2.8v.56h-5v-.56c.81-.39,1-2.8,1-2.8v-9.71l-2-2.1v-.46l5-1.05v3.8c1.34-2.46,3.41-3.51,4.85-3.7,.65-.07,1.56,.11,2.07,.69Z"/>
        </g>
      </g>
    </g>
  </g>
</svg>