<?xml version="1.0" encoding="UTF-8"?>
<svg id="Calque_2" data-name="Calque 2" xmlns="http://www.w3.org/2000/svg" viewBox="0 0 57 85.05">
  <defs>
    <style>
      .cls-1 {
        fill: #ffd166;
      }

      .cls-2 {
        fill: #749e70;
      }
    </style>
  </defs>
  <g id="Calque_4" data-name="Calque 4">
    <g>
      <g>
        <path class="cls-2" d="M2.66,84.95c-1.38,.44-2.66-.58-2.66-1.9V0H57V65.53c0,.87-.51,1.71-1.34,1.97-1.38,.44-2.66-.58-2.66-1.9V4H4V82.97c0,.87-.51,1.71-1.34,1.97Z"/>
        <g>
          <path class="cls-2" d="M55,84.89c-.42,0-.78-.26-.93-.63-13.17-7.75-22.36-21.22-24.77-36.26h-.33c-2.78,15.71-12.86,29.4-27.09,36.75-.49,.25-1.09,.06-1.34-.43s-.06-1.09,.43-1.35c13.92-7.19,23.71-20.7,26.18-36.13l.13-.84h3.74l.12,.86c2.13,14.94,11.23,28.37,24.35,35.91l.5,.29v.83c0,.55-.45,1-1,1Z"/>
          <path class="cls-2" d="M29,63.87c-.55,0-1-.45-1-1v-4.36c0-.55,.45-1,1-1s1,.45,1,1v4.36c0,.55-.45,1-1,1Z"/>
          <path class="cls-2" d="M29,78.82c-.55,0-1-.45-1-1v-7.84c0-.55,.45-1,1-1s1,.45,1,1v7.84c0,.55-.45,1-1,1Z"/>
        </g>
      </g>
      <g>
        <path class="cls-1" d="M44.58,45.66c-.82,0-1.49-.67-1.49-1.5,0-7.61-6.18-13.81-13.78-13.81s-13.78,6.19-13.78,13.81c0,.83-.67,1.5-1.49,1.5s-1.49-.67-1.49-1.5c0-9.26,7.52-16.8,16.77-16.8s16.77,7.54,16.77,16.8c0,.83-.67,1.5-1.49,1.5Z"/>
        <path class="cls-1" d="M32.77,44h-6.93c-.83,0-1.5-.67-1.5-1.5s.67-1.5,1.5-1.5h6.93c.83,0,1.5,.67,1.5,1.5s-.67,1.5-1.5,1.5Z"/>
      </g>
      <g>
        <rect class="cls-1" x="28" y="13" width="2" height="12"/>
        <rect class="cls-1" x="25" y="16" width="9" height="2"/>
      </g>
    </g>
  </g>
</svg>