<?xml version="1.0" encoding="UTF-8"?>
<svg id="Calque_2" data-name="Calque 2" xmlns="http://www.w3.org/2000/svg" viewBox="0 0 79.08 117.93">
  <defs>
    <style>
      .cls-1 {
        fill: #ffd166;
      }

      .cls-2 {
        fill: #749e70;
      }
    </style>
  </defs>
  <g id="Calque_4" data-name="Calque 4">
    <g>
      <g>
        <path class="cls-2" d="M2.42,117.93c-1.52,0-2.75-1.23-2.34-2.76V0H79.08V91.12c-.24,1.52-1.47,2.76-2.98,2.76s-2.75-1.23-2.02-2.76V6H5.08V115.17c.08,1.52-1.14,2.76-2.66,2.76Z"/>
        <g>
          <path class="cls-2" d="M76.09,117.93c-.58,0-1.08-.36-1.28-.88-18.11-10.68-30.75-29.25-34.06-50.05h-.45c-3.83,21.72-17.69,40.6-37.26,50.73-.67,.35-1.5,.08-1.85-.59s-.08-1.51,.59-1.86c19.15-9.91,32.61-28.53,36-49.81l.18-1.48h5.15l.17,1.5c2.93,20.6,15.44,39.11,33.49,49.51l.3,.4v1.14c.39,.76-.23,1.38-.98,1.38Z"/>
          <path class="cls-2" d="M40.58,89.2c-.83,0-1.5-.67-1.5-1.51v-6.55c0-.83,.67-1.51,1.5-1.51s1.5,.67,1.5,1.51v6.55c0,.83-.67,1.51-1.5,1.51Z"/>
          <path class="cls-2" d="M40.58,110.07c-.83,0-1.5-.67-1.5-1.51v-11.79c0-.83,.67-1.51,1.5-1.51s1.5,.67,1.5,1.51v11.79c0,.83-.67,1.51-1.5,1.51Z"/>
        </g>
      </g>
      <g>
        <path class="cls-1" d="M61.69,63.64c-1.14,0-2.06-.93-2.06-2.07,0-10.52-8.52-19.09-19-19.09s-19,8.56-19,19.09c0,1.14-.92,2.07-2.06,2.07s-2.06-.93-2.06-2.07c0-12.8,10.37-23.22,23.12-23.22s23.12,10.42,23.12,23.22c0,1.14-.92,2.07-2.06,2.07Z"/>
        <path class="cls-1" d="M45.24,61h-9.06c-1.02,0-1.99-.7-2.13-1.71-.17-1.23,.78-2.29,1.97-2.29h9.06c1.02,0,1.99,.7,2.13,1.71,.17,1.23-.78,2.29-1.97,2.29Z"/>
      </g>
      <g>
        <rect class="cls-1" x="39.08" y="19" width="3" height="17"/>
        <rect class="cls-1" x="35.08" y="23" width="12" height="3"/>
      </g>
    </g>
  </g>
</svg>