<?xml version="1.0" encoding="UTF-8"?>
<svg id="Calque_2" data-name="Calque 2" xmlns="http://www.w3.org/2000/svg" viewBox="0 0 519 191.37">
  <defs>
    <style>
      .cls-1 {
        fill: #3f3f40;
      }

      .cls-2 {
        fill: #ffd166;
      }

      .cls-3 {
        fill: #749e70;
      }
    </style>
  </defs>
  <g id="Calque_4" data-name="Calque 4">
    <g>
      <g>
        <g>
          <path class="cls-3" d="M5.94,191.14c-3.1,.96-5.94-1.33-5.94-4.28V0H128V147.52c0,1.96-1.19,3.79-3.06,4.38-3.1,.96-5.94-1.33-5.94-4.28V9H9V186.77c0,1.96-1.19,3.79-3.06,4.38Z"/>
          <g>
            <path class="cls-3" d="M123.36,189.22c-.94,0-1.74-.58-2.07-1.41-29.3-17.21-49.76-47.13-55.12-80.81h-.72c-6.19,35.18-28.62,65.59-60.29,81.91-1.09,.57-2.43,.13-2.99-.96-.56-1.09-.13-2.43,.96-2.99,30.98-15.97,52.76-45.96,58.25-80.24l.3-1.73h8.33l.27,1.76c4.73,33.18,24.99,62.99,54.18,79.76l1.54,.64v1.84c-.42,1.23-1.42,2.22-2.64,2.22Z"/>
            <path class="cls-3" d="M64,139.44v-8.4c0-1.02,.7-1.99,1.71-2.13,1.23-.17,2.29,.78,2.29,1.98v8.7c0,1.2-1.05,2.15-2.29,1.98-1.01-.14-1.71-1.11-1.71-2.13Z"/>
            <path class="cls-3" d="M64,172.32v-15.34c0-1.02,.7-1.99,1.71-2.13,1.23-.17,2.29,.78,2.29,1.98v15.65c0,1.2-1.05,2.15-2.29,1.98-1.01-.14-1.71-1.11-1.71-2.13Z"/>
          </g>
        </g>
        <g>
          <path class="cls-2" d="M100.05,101.76c-1.84,0-3.33-1.49-3.33-3.33,0-16.95-13.79-30.75-30.75-30.75s-30.75,13.79-30.75,30.75c0,1.84-1.49,3.33-3.33,3.33s-3.33-1.49-3.33-3.33c0-20.63,16.78-37.41,37.41-37.41s37.41,16.78,37.41,37.41c0,1.84-1.49,3.33-3.33,3.33Z"/>
          <path class="cls-2" d="M74.07,98h-16.27c-1.32,0-2.57-.73-3.1-1.94-1.13-2.57,.73-5.06,3.16-5.06h16.27c1.32,0,2.57,.73,3.1,1.94,1.13,2.57-.73,5.06-3.16,5.06Z"/>
        </g>
        <g>
          <rect class="cls-2" x="64" y="30" width="4" height="27"/>
          <rect class="cls-2" x="56" y="37" width="20" height="4"/>
        </g>
      </g>
      <g>
        <path class="cls-1" d="M229,75h-15v-.91c3.69,0,3-4.02,1.43-7.96l-2.39-6.13h-17.69c-1.84,5.63-4.85,14.37,4.64,14.09v.91h-16v-.9c2.61-.07,4.32-.35,10.29-16.43l11.46-31.67h.75c8.37,20.46,16.87,42.46,16.87,42.46,2.26,5.57,3.7,5.5,5.63,5.64v.9Zm-16.52-15l-9.04-22.9-8.34,22.9h17.38Z"/>
        <path class="cls-1" d="M265,74.41l-8.26,1.38c-1.74,.36-1.74-1.09-1.74-1.09v-5.82c-1.23,3.62-5.67,6.89-10.24,6.89-4.91,0-9.76-1.78-9.76-10.31v-15.48c0-4.57,.07-4.93-4-5.21v-.72l10-1.34v22.57c0,5.14,3.04,7.1,6.97,7.1,3.38,0,5.82-2.37,7.03-5.21v-17.59c0-3.89,.13-4.34-3-4.53v-1.03l9-1.28v26.74l4,4.07v.86Z"/>
        <path class="cls-1" d="M271,49.97c.03-2.35-3-4.41-3-4.41v-.87l9-1.91v28.65c0,13.5-4.93,18.07-12,19.86v-.55c6-1.85,6-15.41,6-18v-22.76Zm-1.15-16.48c0-2,1.59-3.59,3.52-3.59s3.52,1.59,3.52,3.59-1.59,3.52-3.52,3.52-3.52-1.59-3.52-3.52Z"/>
        <path class="cls-1" d="M300.89,75.83c-10.48,0-15.93-7.52-15.93-16.55s5.45-16.55,15.93-16.55,15.86,7.45,15.86,16.55-5.31,16.55-15.86,16.55Zm0-32.21c-5.31,0-8.9,3.17-8.9,15.66s3.59,15.66,8.9,15.66,8.76-3.17,8.76-15.66-3.52-15.66-8.76-15.66Z"/>
        <path class="cls-1" d="M355,74.41l-8.26,1.38c-1.74,.36-1.74-1.09-1.74-1.09v-5.82c-1.23,3.62-5.67,6.89-10.24,6.89-4.91,0-9.76-1.78-9.76-10.31v-15.48c0-4.57,.07-4.93-4-5.21v-.72l10-1.34v22.57c0,5.14,3.04,7.1,6.97,7.1,3.38,0,5.82-2.37,7.03-5.21v-17.59c0-3.89,.13-4.34-3-4.53v-1.03l9-1.28v26.74l4,4.07v.86Z"/>
        <path class="cls-1" d="M379.84,44.09c1.45,1.74,1.23,4.2-.51,5.65-1.67,1.38-4.13,1.23-5.65-.51-.65-.8-1.01-1.81-.8-2.76,.22-1.23-4.64,.51-6.88,5.36v16.74c0,3.86,.37,4.9,3,5.52v.9h-12v-.9c2.85-.76,3-1.93,3-5.52v-18.89l-4-4.14v-.95l10-2.1v7.61c2.68-4.93,6.81-7.03,9.71-7.39,1.3-.14,3.12,.22,4.13,1.38Z"/>
        <path class="cls-1" d="M418,74.47l-7.96,1.31c-2.04,.36-2.04-1.31-2.04-1.31v-3.75s-6.84,5.1-10.22,5.1c-9.24,0-14.55-7.31-14.55-16.97,0-10.69,6.97-16.14,16.21-16.14,3.38,0,6.21,.97,8.57,2.55v-14.35c-.09-2.41-3-3.86-3-3.86v-.94l9-1.77v45.48l4,3.79v.85Zm-10-20.85c0-6.69-4.14-10-8.34-10-4.55,0-9.17,3.24-9.17,14.28s3.52,15.93,9.52,15.93c4.55,0,8-3.31,8-8.14v-12.07Z"/>
        <path class="cls-1" d="M423.01,42.59c4.62-3.31,4.21-7.52,3.1-7.66-.96-.14-1.86-.41-2.69-1.17-1.59-1.59-1.65-4.14-.07-5.72,1.59-1.59,4.14-1.59,5.72,0,2.41,2.41,1.24,7.31-.62,10.35-.9,1.38-2,3.17-5.03,4.76l-.41-.55Z"/>
        <path class="cls-1" d="M468,75h-12v-.83c2.85-.76,3-2.07,3-5.59v-14.28c0-5.22-2.46-8.26-7.54-8.26-3.62,0-6.3,3.33-7.46,5.8v16.74c0,3.79,.37,4.9,3,5.52v.9h-11v-.9c2.85-.76,3-2,3-5.52V31l-4-3.72v-.84l10-2.18v26.24c1.02-3.89,6.14-7.71,10.58-7.71,5.6,0,9.42,2.8,9.42,10.99v14.81c0,3.79,.44,4.97,3,5.59v.83Z"/>
        <path class="cls-1" d="M504,74.41l-8.26,1.38c-1.74,.36-1.74-1.09-1.74-1.09v-5.82c-1.23,3.62-5.67,6.89-10.24,6.89-4.91,0-9.76-1.78-9.76-10.31v-15.48c0-4.57,.07-4.93-4-5.21v-.72l10-1.34v22.57c0,5.14,3.04,7.1,6.97,7.1,3.38,0,5.82-2.37,7.03-5.21v-17.59c0-3.89,.13-4.34-3-4.53v-1.03l9-1.28v26.74l4,4.07v.86Z"/>
        <path class="cls-1" d="M519,75h-12v-.9c2.85-.76,3-2,3-5.52v-18.89l-3-4.14v-.87l9-1.91v25.81c0,3.86,.37,4.9,3,5.52v.9Zm-9.86-41.52c0-2,1.52-3.52,3.52-3.52s3.52,1.52,3.52,3.52-1.59,3.52-3.52,3.52-3.52-1.59-3.52-3.52Z"/>
      </g>
      <g>
        <path class="cls-1" d="M197,166h-12v-1.03c2.51-.76,2-5.45,2-5.45v-37.86l-3-3.93v-.85l10-1.96v44.73c0,3.79,.37,4.83,3,5.45v.9Z"/>
        <path class="cls-1" d="M222.53,133.25c4.62-3.31,4.21-7.52,3.1-7.66-.96-.14-1.86-.41-2.69-1.17-1.59-1.59-1.65-4.14-.07-5.72,1.59-1.59,4.14-1.59,5.72,0,2.41,2.41,1.24,7.31-.62,10.35-.9,1.38-2,3.17-5.03,4.76l-.41-.55Z"/>
        <path class="cls-1" d="M284,166h-16v-.91c3.69,0,3-4.02,1.43-7.96l-2.39-6.13h-17.69c-1.84,5.63-4.85,14.37,4.64,14.09v.91h-15v-.9c2.61-.07,4.32-.35,10.29-16.43l11.46-31.67h.75c8.37,20.46,16.87,42.46,16.87,42.46,2.26,5.57,3.7,5.5,5.63,5.64v.9Zm-17.02-16l-9.04-22.9-8.34,22.9h17.38Z"/>
        <path class="cls-1" d="M315,134v.88c-2.66,0-4.75,.07-8.46,8.7l-8.67,22.42h-.7c-12.37-26.09-13.28-27.72-13.28-27.72-1.75-3.4-3.71-3.33-4.89-3.4v-.88h14v.9c-4.7,0-2.18,4.76-2.18,4.76l8.7,18.69,5.4-14.28s3.72-9.17-3.93-9.17v-.9h14Z"/>
        <path class="cls-1" d="M345.49,157.41c-.76,3.24-4.55,8.76-12.69,8.76-8.62,0-14.76-7.17-14.76-16.28,0-10.21,6.48-16.83,15.04-16.83,8,0,13.52,5.11,13.52,15.93h-22.07c.28,9.31,4.41,13.03,9.86,13.59,4.14,.41,9.03-2.14,10.28-5.52l.83,.34Zm-4.83-9.41c0-10.07-4.48-14.14-7.79-14.14-3.93,0-8.34,5.45-8.34,14.14h16.14Z"/>
        <path class="cls-1" d="M384,166h-12v-.83c2.85-.76,3-2.07,3-5.59v-14.98c0-4.67-2.47-7.75-7-7.75-3.57,0-6.45,3.43-7,5.9v16.9c0,3.79,.37,4.83,3,5.45v.9h-12v-1.03c2.98-.76,3-5.45,3-5.45v-19.24l-4-4.07v-.78l10-2.1v7.29c1.44-3.99,6.19-7.22,10.52-7.22,5.57,0,9.48,2.68,9.48,11v15.18c0,3.79,.44,4.97,3,5.59v.83Z"/>
        <path class="cls-1" d="M403,166h-12v-.9c2.85-.76,3-2,3-5.52v-19.23l-3-4.14v-.87l9-1.91v26.15c0,3.86,.37,4.9,3,5.52v.9Zm-10.31-41.86c0-2,1.52-3.52,3.52-3.52s3.52,1.52,3.52,3.52-1.59,3.52-3.52,3.52-3.52-1.59-3.52-3.52Z"/>
        <path class="cls-1" d="M432.46,135.06c1.3,1.57,1.11,3.78-.46,5.09-1.5,1.24-3.72,1.11-5.09-.46-.59-.72-.91-1.63-.72-2.48,.2-1.11-4.17,.46-6.2,4.83v17.55c0,3.86,.37,4.9,3,5.52v.9h-12v-.9c2.85-.76,3-1.93,3-5.52v-19.23l-3-4.14v-.69l9-1.89v6.85c2.41-4.43,6.13-6.33,8.74-6.65,1.17-.13,2.8,.2,3.72,1.24Z"/>
      </g>
    </g>
  </g>
</svg>