<?xml version="1.0" encoding="UTF-8"?>
<svg id="Calque_2" data-name="Calque 2" xmlns="http://www.w3.org/2000/svg" viewBox="0 0 509 185.36">
  <g id="Calque_4" data-name="Calque 4">
    <g>
      <g>
        <g>
          <path d="M4.49,185.36c-2.4,0-4.35-1.96-4.49-4.37V0H126V142.91c-.48,2.41-2.43,4.37-4.83,4.37s-4.35-1.96-4.17-4.37V9H9V180.99c-.17,2.41-2.11,4.37-4.51,4.37Z"/>
          <g>
            <path d="M121.17,185.36c-.92,0-1.71-.57-2.02-1.39-28.67-16.92-48.7-46.33-53.95-78.98h-.71c-6.06,34.11-28.01,64.01-59.01,80.05-1.07,.56-2.38,.13-2.93-.94s-.13-2.39,.94-2.94c30.33-15.7,51.64-45.19,57.02-78.88l.29-1.29h8.15l.27,1.33c4.63,32.62,24.46,61.93,53.03,78.41l.75,.63v1.81c.34,1.21-.63,2.18-1.83,2.18Z"/>
            <path d="M63,136.51v-8.45c0-1.02,.7-1.99,1.71-2.13,1.23-.17,2.29,.78,2.29,1.99v8.74c0,1.2-1.05,2.16-2.29,1.99-1.01-.14-1.71-1.11-1.71-2.13Z"/>
            <path d="M63,168.91v-15.43c0-1.02,.7-1.99,1.71-2.13,1.23-.17,2.29,.78,2.29,1.99v15.72c0,1.21-1.05,2.16-2.29,1.99-1.01-.14-1.71-1.11-1.71-2.13Z"/>
          </g>
        </g>
        <g>
          <path d="M98.36,99.38c-1.8,0-3.26-1.47-3.26-3.27,0-16.67-13.5-30.23-30.09-30.23s-30.09,13.56-30.09,30.23c0,1.81-1.46,3.27-3.26,3.27s-3.26-1.47-3.26-3.27c0-20.28,16.43-36.78,36.61-36.78s36.61,16.5,36.61,36.78c0,1.81-1.46,3.27-3.26,3.27Z"/>
          <path d="M73.07,96h-16.16c-1.33,0-2.6-.74-3.13-1.96-1.1-2.56,.74-5.04,3.16-5.04h16.16c1.33,0,2.6,.74,3.13,1.96,1.1,2.56-.74,5.04-3.16,5.04Z"/>
        </g>
        <g>
          <rect x="63" y="28" width="4" height="27"/>
          <rect x="56" y="35" width="19" height="4"/>
        </g>
      </g>
      <g>
        <path d="M225,73h-15v-.85c3.69,0,3-3.75,1.43-7.43l-2.39-5.72h-17.69c-1.84,5.26-4.85,13.41,4.64,13.15v.85h-15v-.89c2.55-.07,4.23-.34,10.06-16.09l11.2-31.02h.74c8.18,20.05,16.5,41.59,16.5,41.59,2.21,5.45,3.62,5.39,5.5,5.52v.89Zm-16.6-15l-8.84-22.51-8.17,22.51h17.01Z"/>
        <path d="M259,72.55l-7.43,1.24c-1.57,.33-1.57-.98-1.57-.98v-5.8c-1.23,3.63-5.67,6.92-10.24,6.92-4.91,0-9.76-1.78-9.76-10.35v-15.05c0-4.59,.07-4.95-4-5.24v-.64l10-1.35v22.13c0,5.16,3.04,7.13,6.97,7.13,3.38,0,5.82-2.38,7.03-5.23v-17.21c0-3.91,.13-4.36-3-4.55v-.95l9-1.28v26.31l3,4v.91Z"/>
        <path d="M265,48.46c.71-2.31-3-4.34-3-4.34v-.84l9-1.91v28.8c0,12.43-4.52,16.64-11,18.28v-1.24c5-1.55,5-12.9,5-15.07v-23.69Zm-.44-16.21c0-1.97,1.55-3.53,3.44-3.53s3.44,1.56,3.44,3.53-1.55,3.46-3.44,3.46-3.44-1.56-3.44-3.46Z"/>
        <path d="M294.93,73.88c-10.26,0-15.59-7.39-15.59-16.27s5.33-16.27,15.59-16.27,15.53,7.32,15.53,16.27-5.2,16.27-15.53,16.27Zm0-31.67c-5.2,0-8.71,3.12-8.71,15.39s3.51,15.39,8.71,15.39,8.57-3.12,8.57-15.39-3.44-15.39-8.57-15.39Z"/>
        <path d="M347,72.55l-7.43,1.24c-1.57,.33-1.57-.98-1.57-.98v-5.8c-1.23,3.63-5.67,6.92-10.24,6.92-4.91,0-9.76-1.78-9.76-10.35v-15.05c0-4.59,.07-4.95-4-5.24v-.64l10-1.35v22.13c0,5.16,3.04,7.13,6.97,7.13,3.38,0,5.82-2.38,7.03-5.23v-17.21c0-3.91,.13-4.36-3-4.55v-.95l9-1.28v26.31l3,4v.91Z"/>
        <path d="M371.46,42.92c1.3,1.57,1.11,3.8-.46,5.11-1.5,1.25-3.72,1.11-5.09-.46-.59-.72-.91-1.64-.72-2.49,.2-1.11-4.17,.46-6.2,4.85v16.76c0,3.8,.37,4.81,3,5.42v.88h-12v-.61c2.64-.75,3-5.42,3-5.42v-18.78l-3-4.07v-.73l9-1.9v6.88c2.41-4.45,6.13-6.35,8.74-6.68,1.17-.13,2.8,.2,3.72,1.24Z"/>
        <path d="M409,72.53l-7.96,1.32c-2.04,.37-2.04-1.32-2.04-1.32v-3.67s-5.93,5.02-9.23,5.02c-9.05,0-14.24-7.19-14.24-16.68,0-10.51,6.82-15.87,15.86-15.87,3.31,0,6.08,.95,7.61,2.51v-14.1c.69-2.37-3-3.8-3-3.8v-.81l10-1.98v44.83l3,3.73v.82Zm-9-20.48c0-6.58-4.05-9.83-8.17-9.83-4.46,0-8.98,3.19-8.98,14.04s3.44,15.66,9.32,15.66c4.46,0,7.83-3.25,7.83-8v-11.87Z"/>
        <path d="M414.47,41.2c4.52-3.25,4.12-7.39,3.04-7.53-.94-.14-1.82-.41-2.63-1.15-1.55-1.56-1.62-4.07-.07-5.63,1.55-1.56,4.05-1.56,5.6,0,2.36,2.37,1.22,7.19-.61,10.17-.88,1.36-1.96,3.12-4.93,4.68l-.4-.54Z"/>
        <path d="M458,73h-11v-.54c2.37-.75,3-5.49,3-5.49v-14.16c0-5.24-2.46-8.3-7.54-8.3-3.62,0-6.3,3.35-7.46,5.82v16.36c0,3.73,.37,4.81,3,5.42v.88h-11v-.61c2.45-.75,2-5.42,2-5.42V29.81l-3-3.66v-.92l9-1.97v25.76c1.02-3.91,6.14-7.75,10.58-7.75,5.6,0,9.42,2.81,9.42,11.04v14.38c0,3.73,.44,4.88,3,5.49v.81Z"/>
        <path d="M493,72.55l-7.43,1.24c-1.57,.33-1.57-.98-1.57-.98v-5.8c-1.23,3.63-5.67,6.92-10.24,6.92-4.91,0-9.76-1.78-9.76-10.35v-15.05c0-4.59,.07-4.95-4-5.24v-.64l10-1.35v22.13c0,5.16,3.04,7.13,6.97,7.13,3.38,0,5.82-2.38,7.03-5.23v-17.21c0-3.91,.13-4.36-3-4.55v-.95l9-1.28v26.31l3,4v.91Z"/>
        <path d="M509,73h-12v-.61c2.78-.75,3-5.42,3-5.42v-18.78l-3-4.07v-.84l9-1.91v25.33c0,3.8,.37,4.81,3,5.42v.88Zm-10.23-40.75c0-1.97,1.48-3.46,3.44-3.46s3.44,1.49,3.44,3.46-1.55,3.46-3.44,3.46-3.44-1.56-3.44-3.46Z"/>
      </g>
      <g>
        <path d="M193,162h-12v-.48c2.97-.75,3-5.36,3-5.36v-37.23l-3-3.86v-.91l9-1.77v43.77s.38,4.75,3,5.36v.48Z"/>
        <path d="M218.23,130.33c4.52-3.25,4.12-7.39,3.04-7.53-.94-.14-1.82-.41-2.63-1.15-1.55-1.56-1.62-4.07-.07-5.63,1.55-1.56,4.05-1.56,5.6,0,2.36,2.37,1.22,7.19-.61,10.17-.88,1.36-1.96,3.12-4.93,4.68l-.4-.54Z"/>
        <path d="M278,163h-15v-.91c3.69,0,3-4.02,1.43-7.96l-2.39-6.13h-17.69c-1.84,5.63-4.85,14.37,4.64,14.09v.91h-15v-.89c2.55-.07,4.23-.34,10.06-16.09l11.2-31.02h.74c8.18,20.05,16.5,41.59,16.5,41.59,2.21,5.45,3.62,5.39,5.5,5.52v.89Zm-16.25-16l-8.84-22.51-8.17,22.51h17.01Z"/>
        <path d="M308,130v.88c-2.58,0-4.62,.07-8.22,8.7l-8.43,22.42h-.68c-12.03-26.09-12.91-27.72-12.91-27.72-1.7-3.4-3.6-3.33-4.76-3.4v-.88h14v.88c-4.7,0-2.18,4.68-2.18,4.68l8.7,18.38,5.4-14.04s3.72-9.02-3.93-9.02v-.88h13Z"/>
        <path d="M338.59,154.27c-.74,3.19-4.46,8.61-12.42,8.61-8.44,0-14.45-7.05-14.45-16,0-10.04,6.35-16.55,14.72-16.55,7.83,0,13.23,5.02,13.23,15.66h-21.6c.27,9.15,4.32,12.81,9.65,13.36,4.05,.41,8.84-2.1,10.06-5.42l.81,.34Zm-4.72-9.27c0-9.9-4.39-13.9-7.63-13.9-3.85,0-8.17,5.36-8.17,13.9h15.8Z"/>
        <path d="M376,162h-11v-.41c2.52-.75,3-5.49,3-5.49v-14.52c0-4.69-2.47-7.79-7-7.79-3.57,0-6.45,3.45-7,5.93v16.04c0,3.73,.37,4.75,3,5.36v.88h-12v-.48c2.88-.75,3-5.36,3-5.36v-18.92l-3-4v-.85l9-1.9v7.03c1.37-3.8,5.88-6.89,9.99-6.89,5.29,0,9.01,2.56,9.01,10.49v14.56c0,3.73,.44,4.88,3,5.49v.81Z"/>
        <path d="M395,162h-12v-.48c2.8-.75,3-5.42,3-5.42v-18.78l-3-4.07v-.84l9-1.91v25.2c0,3.8,.37,4.81,3,5.42v.88Zm-10.21-40.62c0-1.97,1.48-3.46,3.44-3.46s3.44,1.49,3.44,3.46-1.55,3.46-3.44,3.46-3.44-1.56-3.44-3.46Z"/>
        <path d="M423.46,132.05c1.3,1.57,1.11,3.8-.46,5.11-1.5,1.25-3.72,1.11-5.09-.46-.59-.72-.91-1.64-.72-2.49,.2-1.11-4.17,.46-6.2,4.85v16.63c0,3.8,.37,4.81,3,5.42v.88h-11v-.48c2.39-.75,2-5.42,2-5.42v-18.78l-3-4.07v-.73l9-1.9v6.88c2.41-4.45,6.13-6.35,8.74-6.68,1.17-.13,2.8,.2,3.72,1.24Z"/>
      </g>
    </g>
  </g>
</svg>