<?xml version="1.0" encoding="UTF-8"?>
<svg id="Calque_2" data-name="Calque 2" xmlns="http://www.w3.org/2000/svg" viewBox="0 0 269 312">
  <defs>
    <style>
      .cls-1 {
        fill: #fff9e6;
      }

      .cls-2 {
        fill: #ffd166;
      }

      .cls-3 {
        fill: #749e70;
      }
    </style>
  </defs>
  <g id="Calque_4" data-name="Calque 4">
    <g>
      <g>
        <g>
          <path class="cls-3" d="M86.48,152.41c-1.97,0-3.58-1.6-3.48-3.58V0h103V114.66c0,1.71-1.15,3.28-2.83,3.59-2.23,.41-4.17-1.29-4.17-3.44V7H90V148.84c.05,1.97-1.55,3.58-3.52,3.58Z"/>
          <g>
            <path class="cls-3" d="M182.43,152.41c-.76,0-1.4-.47-1.66-1.13-23.58-13.85-40.05-37.93-44.36-64.28h-.58c-4.99,27.54-23.04,52.02-48.52,65.16-.88,.46-1.96,.11-2.41-.77s-.11-1.96,.77-2.41c24.94-12.85,42.47-37,46.89-64.58l.24-1.4h6.7l.22,1.43c3.81,26.71,20.11,50.7,43.61,64.2l.68,.51v1.48c.22,.99-.58,1.79-1.57,1.79Z"/>
            <path class="cls-3" d="M135.92,114.63c-.99,0-1.79-.8-1.92-1.79v-7.78c.13-.99,.93-1.79,1.92-1.79s1.79,.8,2.08,1.79v7.78c-.29,.99-1.09,1.79-2.08,1.79Z"/>
            <path class="cls-3" d="M135.92,141.41c-.99,0-1.79-.8-1.92-1.79v-13.99c.13-.99,.93-1.79,1.92-1.79s1.79,.8,2.08,1.79v13.99c-.29,.99-1.09,1.79-2.08,1.79Z"/>
          </g>
        </g>
        <g>
          <path class="cls-2" d="M163.67,82.01c-1.48,0-2.68-1.2-2.68-2.68,0-13.65-11.1-24.75-24.75-24.75s-24.75,11.1-24.75,24.75c0,1.48-1.2,2.68-2.68,2.68s-2.68-1.2-2.68-2.68c0-16.6,13.51-30.11,30.11-30.11s30.11,13.51,30.11,30.11c0,1.48-1.2,2.68-2.68,2.68Z"/>
          <path class="cls-2" d="M142.03,79h-11.4c-1.33,0-2.55-.95-2.67-2.27-.13-1.48,1.04-2.73,2.49-2.73h11.4c1.33,0,2.55,.95,2.67,2.27,.13,1.48-1.04,2.73-2.49,2.73Z"/>
        </g>
        <g>
          <rect class="cls-2" x="134" y="24" width="4" height="22"/>
          <rect class="cls-2" x="128" y="29" width="16" height="4"/>
        </g>
      </g>
      <g>
        <g>
          <path class="cls-1" d="M36,239h-13v-.73c2.9,0,2.36-3.21,1.13-6.37l-1.88-4.9H8.35c-1.45,4.51-3.81,11.49,3.65,11.27v.73H0v-.74c2.09-.06,3.46-.28,8.23-13.41l9.17-25.85h.6c6.69,16.7,13.5,34.66,13.5,34.66,1.81,4.54,2.96,4.49,4.5,4.6v.74Zm-13.61-13l-7.27-18.43-6.72,18.43h13.99Z"/>
          <path class="cls-1" d="M64,237.82l-6.61,1.1c-1.39,.29-1.39-.87-1.39-.87v-4.68c-.98,2.89-4.53,5.52-8.19,5.52-3.93,0-7.81-1.42-7.81-8.25v-12.63c0-3.43,.05-3.7-3-3.91v-.73l8-1.07v17.98c0,4.41,2.61,6.09,5.97,6.09,2.9,0,4.98-2.03,6.03-4.46v-13.93l-3-3.94v-.7l7-.99v21.41c0,2.82,.53,3.18,3,3.47v.59Z"/>
          <path class="cls-1" d="M69,218.14c.51-1.89-2-3.55-2-3.55v-.62l8-1.69v22.86c0,11.25-4.11,15.06-10,16.55v-1.22l4-13.49v-18.82Zm-.43-13.27c0-1.61,1.28-2.89,2.83-2.89s2.83,1.28,2.83,2.89-1.28,2.83-2.83,2.83-2.83-1.28-2.83-2.83Z"/>
          <path class="cls-1" d="M93.55,238.95c-8.44,0-12.82-6.05-12.82-13.32s4.39-13.32,12.82-13.32,12.77,6,12.77,13.32-4.28,13.32-12.77,13.32Zm0-25.92c-4.28,0-7.16,2.55-7.16,12.6s2.89,12.6,7.16,12.6,7.05-2.55,7.05-12.6-2.83-12.6-7.05-12.6Z"/>
          <path class="cls-1" d="M137,237.82l-6.61,1.1c-1.39,.29-1.39-.87-1.39-.87v-4.68c-.98,2.89-4.53,5.52-8.19,5.52-3.93,0-7.81-1.42-7.81-8.25v-12.56l-4-4.05v-.66l8-1.07v17.98c0,4.41,2.61,6.09,5.97,6.09,2.9,0,4.98-2.03,6.03-4.46v-13.93l-2-3.94v-.7l7-.99v21.41c0,2.82,.53,3.18,3,3.47v.59Z"/>
          <path class="cls-1" d="M157.07,213.42c1.16,1.39,.98,3.36-.41,4.52-1.33,1.1-3.3,.99-4.52-.4-.52-.64-.81-1.45-.64-2.2,.17-.98-3.71,.41-5.51,4.29v13.66s.27,3.94,2,4.44v.27h-9v-.72c1.9-.61,2-1.55,2-4.44v-14.79c0-2.1-.54-2.94-3-3.6v-.62l8-1.68v6.09c2.14-3.94,5.45-5.62,7.77-5.91,1.04-.12,2.49,.17,3.31,1.1Z"/>
          <path class="cls-1" d="M187,237.87l-6.37,1.05c-1.63,.29-1.63-1.05-1.63-1.05v-3.02s-4.75,4.11-7.47,4.11c-7.44,0-11.71-5.88-11.71-13.66,0-8.6,5.61-12.99,13.05-12.99,2.72,0,5,.78,6.14,2.06v-11.55c.69-1.94-2-3.11-2-3.11v-.68l8-1.58v36.68l2,3.05v.69Zm-7-16.79c0-5.39-3.33-8.05-6.72-8.05-3.66,0-7.38,2.61-7.38,11.49s2.83,12.82,7.66,12.82c3.66,0,6.44-2.66,6.44-6.55v-9.71Z"/>
          <path class="cls-1" d="M191.85,212.2c3.72-2.66,3.39-6.05,2.5-6.16-.78-.11-1.5-.33-2.16-.94-1.28-1.28-1.33-3.33-.06-4.61,1.28-1.28,3.33-1.28,4.61,0,1.94,1.94,1,5.88-.5,8.33-.72,1.11-1.61,2.55-4.05,3.83l-.33-.44Z"/>
          <path class="cls-1" d="M228,238h-9v-.67c1.9-.61,2-1.67,2-4.5v-11.23c0-4.17-1.97-6.61-6.03-6.61-2.9,0-5.04,2.67-5.97,4.64v13.66s.44,3.94,2,4.44v.27h-9v-.72c1.9-.61,2-1.61,2-4.44v-29.85c0-2.1-.54-2.82-3-3.24v-.56l8-1.74v21.21c.87-3.31,5.22-6.56,8.99-6.56,4.76,0,8.01,2.38,8.01,9.34v11.84s-.24,4,2,4.5v.21Z"/>
          <path class="cls-1" d="M257,237.82l-6.61,1.1c-1.39,.29-1.39-.87-1.39-.87v-4.68c-.98,2.89-4.53,5.52-8.19,5.52-3.93,0-7.81-1.42-7.81-8.25v-12.63c0-3.43,.05-3.7-3-3.91v-.73l8-1.07v18.23c0,4.04,2.39,5.58,5.47,5.58,2.66,0,4.57-1.86,5.53-4.09v-14.05l-2-3.94v-.7l7-.99v21.41c0,2.82,.53,3.18,3,3.47v.59Z"/>
          <path class="cls-1" d="M269,238h-9v-.72c1.9-.61,2-1.61,2-4.44v-14.79c0-2.1-.48-2.94-3-3.6v-.49l8-1.69v21.03s.22,3.94,2,4.44v.27Zm-7.83-33.13c0-1.61,1.22-2.83,2.83-2.83s2.83,1.22,2.83,2.83-1.28,2.83-2.83,2.83-2.83-1.28-2.83-2.83Z"/>
        </g>
        <g>
          <path class="cls-1" d="M44,311h-9v-.72c1.9-.61,2-1.55,2-4.39v-29.92c0-2.1-.54-2.94-3-3.42v-.56l8-1.57v35.47c0,3.05,.25,3.89,2,4.39v.72Z"/>
          <path class="cls-1" d="M64.73,285.17c3.72-2.66,3.39-6.05,2.5-6.16-.78-.11-1.5-.33-2.16-.94-1.28-1.28-1.33-3.33-.06-4.61,1.28-1.28,3.33-1.28,4.61,0,1.94,1.94,1,5.88-.5,8.33-.72,1.11-1.61,2.55-4.05,3.83l-.33-.44Z"/>
          <path class="cls-1" d="M114,312h-13v-.73c2.9,0,2.36-3.21,1.13-6.37l-1.88-4.9h-13.9c-1.45,4.51-3.81,11.49,3.65,11.27v.73h-12v-.74c2.09-.06,3.46-.28,8.23-13.41l9.17-25.85h.6c6.69,16.7,13.5,34.66,13.5,34.66,1.81,4.54,2.96,4.49,4.5,4.6v.74Zm-13.49-13l-7.27-18.43-6.72,18.43h13.99Z"/>
          <path class="cls-1" d="M139,285v.72c-2.14,0-3.83,.06-6.81,7.07l-6.98,18.22h-.56c-9.97-21.2-10.7-22.52-10.7-22.52-1.41-2.76-2.98-2.7-3.94-2.76v-.72h12v.72c-3.53,0-1.63,3.83-1.63,3.83l6.53,15.04,4.05-11.49s2.79-7.38-2.95-7.38v-.72h11Z"/>
          <path class="cls-1" d="M163.7,304.77c-.61,2.61-3.66,7.05-10.21,7.05-6.94,0-11.88-5.77-11.88-13.1,0-8.22,5.22-13.55,12.1-13.55,6.44,0,10.88,4.11,10.88,12.82h-17.76c.22,7.49,3.55,10.49,7.94,10.94,3.33,.33,7.27-1.72,8.27-4.44l.67,.28Zm-3.89-7.77c0-8.11-3.61-11.38-6.27-11.38-3.16,0-6.72,4.39-6.72,11.38h12.99Z"/>
          <path class="cls-1" d="M195,311h-10v-.67c1.9-.61,2-1.67,2-4.5v-11.6c0-3.67-1.94-6.09-5.5-6.09-2.8,0-5.07,2.7-5.5,4.64v13.54s.55,3.89,2,4.39v.29h-9v-.29c2.34-.61,3-4.39,3-4.39v-15.36c0-2.1-.48-2.88-3-3.54v-.6l7-1.47v5.83c1.23-3.39,5.26-6.13,8.94-6.13,4.73,0,8.06,2.28,8.06,9.35v11.87s-.24,4,2,4.5v.24Z"/>
          <path class="cls-1" d="M210,311h-9v-.72c1.9-.61,2-1.61,2-4.44v-14.82c0-2.1-.48-2.94-3-3.6v-.49l8-1.69v21.03s-.26,3.94,2,4.44v.29Zm-8.31-33.16c0-1.61,1.22-2.83,2.83-2.83s2.83,1.22,2.83,2.83-1.28,2.83-2.83,2.83-2.83-1.28-2.83-2.83Z"/>
          <path class="cls-1" d="M235.07,286.4c1.16,1.39,.98,3.36-.41,4.52-1.33,1.1-3.3,.99-4.52-.4-.52-.64-.81-1.45-.64-2.2,.17-.98-3.71,.41-5.51,4.29v13.66s-.09,3.94,2,4.44v.29h-9v-.72c1.9-.61,2-1.55,2-4.44v-14.82c0-2.1-.54-2.94-3-3.6v-.62l8-1.68v6.09c2.14-3.94,5.45-5.62,7.77-5.91,1.04-.12,2.49,.17,3.31,1.1Z"/>
        </g>
      </g>
    </g>
  </g>
</svg>